# xmcd
#
# Track frame offsets:
#	150
#	11995
#	24691
#	38577
#	55475
#	72876
#	84016
#	102354
#	114863
#	132472
#	150504
#	164259
#
# Disc length: 2398 seconds
#
# Revision: 0
# Processed by: cddbd v1.5.2PL0 Copyright (c) Steve Scherf et al.
# Submitted via: EasyCDDAExtractor 10.0.2.1
#
DISCID=91095c0c
DTITLE=Various Artist - TIMA Vol.1
DYEAR=2007
DGENRE=Gospel
TTITLE0=Joe Paul Nichols - What's It Gonna Take
TTITLE1=Joe Price and Dave Rich - The Forgotten Ones
TTITLE2=Larry Massey - Devil In A High Dollar Suit
TTITLE3=Roland Wright - Retirement Song
TTITLE4=Carolan Freeman - Feels Good To Touch The Old Rugged Cross
TTITLE5=The Herrins - Ready To Go
TTITLE6=Lance Miller - Fireman
TTITLE7=Charie Denson - Cowboys Like Me
TTITLE8=Tina Hutchings - Still He Loves Me
TTITLE9=Mary Fay Jackson and Mike Culpepper - Live Every day
TTITLE10=Micheal Bridges - One Of These Days
TTITLE11=Doug DeRamus - Almost Home
EXTD=
EXTT0=
EXTT1=
EXTT2=
EXTT3=
EXTT4=
EXTT5=
EXTT6=
EXTT7=
EXTT8=
EXTT9=
EXTT10=
EXTT11=
PLAYORDER=
